<?xml version="1.0" encoding="UTF-8" standalone="no"?>
<!-- Created with Inkscape (http://www.inkscape.org/) -->

<svg
   xmlns:ns0="http://www.iki.fi/pav/software/textext/"
   xmlns:dc="http://purl.org/dc/elements/1.1/"
   xmlns:cc="http://creativecommons.org/ns#"
   xmlns:rdf="http://www.w3.org/1999/02/22-rdf-syntax-ns#"
   xmlns:svg="http://www.w3.org/2000/svg"
   xmlns="http://www.w3.org/2000/svg"
   xmlns:xlink="http://www.w3.org/1999/xlink"
   xmlns:sodipodi="http://sodipodi.sourceforge.net/DTD/sodipodi-0.dtd"
   xmlns:inkscape="http://www.inkscape.org/namespaces/inkscape"
   width="79.304443mm"
   height="86.014114mm"
   viewBox="0 0 281 304.77442"
   id="svg2"
   version="1.1"
   inkscape:version="0.91 r13725"
   sodipodi:docname="overview.svg">
  <sodipodi:namedview
     id="base"
     pagecolor="#ffffff"
     bordercolor="#666666"
     borderopacity="1.0"
     inkscape:pageopacity="0.0"
     inkscape:pageshadow="2"
     inkscape:zoom="2.1352313"
     inkscape:cx="86.353418"
     inkscape:cy="144.96943"
     inkscape:document-units="px"
     inkscape:current-layer="layer1"
     showgrid="true"
     inkscape:window-width="1775"
     inkscape:window-height="1517"
     inkscape:window-x="0"
     inkscape:window-y="60"
     inkscape:window-maximized="0"
     inkscape:snap-bbox="true"
     inkscape:bbox-nodes="true"
     inkscape:snap-bbox-edge-midpoints="false"
     inkscape:snap-bbox-midpoints="true"
     inkscape:bbox-paths="true"
     inkscape:object-paths="true"
     inkscape:snap-intersection-paths="false"
     inkscape:object-nodes="true"
     inkscape:snap-smooth-nodes="true"
     inkscape:snap-others="true"
     inkscape:snap-midpoints="true"
     inkscape:snap-nodes="true"
     fit-margin-top="0"
     fit-margin-left="0"
     fit-margin-right="0"
     fit-margin-bottom="0">
    <inkscape:grid
       opacity="0.1254902"
       color="#ff853f"
       empspacing="10"
       id="grid4539"
       type="xygrid"
       originx="-89.5"
       originy="-595.7256" />
  </sodipodi:namedview>
  <defs
     id="defs4" />
  <metadata
     id="metadata7">
    <rdf:RDF>
      <cc:Work
         rdf:about="">
        <dc:format>image/svg+xml</dc:format>
        <dc:type
           rdf:resource="http://purl.org/dc/dcmitype/StillImage" />
        <dc:title></dc:title>
      </cc:Work>
    </rdf:RDF>
  </metadata>
  <g
     inkscape:label="Layer 1"
     inkscape:groupmode="layer"
     id="layer1"
     transform="translate(-89.5,-151.86218)">
    <g
       transform="translate(60,-140)"
       id="g4567">
      <text
         sodipodi:linespacing="125%"
         id="text4481"
         y="462.95422"
         x="211.15479"
         style="font-style:normal;font-weight:normal;font-size:15px;line-height:125%;font-family:sans-serif;letter-spacing:0px;word-spacing:0px;fill:#000000;fill-opacity:1;stroke:none;stroke-width:1px;stroke-linecap:butt;stroke-linejoin:miter;stroke-opacity:1"
         xml:space="preserve"><tspan
           y="462.95422"
           x="211.15479"
           id="tspan4483"
           sodipodi:role="line">Elem</tspan></text>
      <rect
         y="442.36218"
         x="170"
         height="30"
         width="140"
         id="rect4557"
         style="opacity:0.95;fill:none;stroke:#008000" />
      <path
         style="fill:none;fill-rule:evenodd;stroke:#000000;stroke-width:1px;stroke-linecap:butt;stroke-linejoin:miter;stroke-opacity:1"
         d="m 299.5,442.3622 0,30"
         id="path4559"
         inkscape:connector-curvature="0" />
      <path
         style="fill:none;fill-rule:evenodd;stroke:#000000;stroke-width:1px;stroke-linecap:butt;stroke-linejoin:miter;stroke-opacity:1"
         d="m 290,442.36218 0,30"
         id="path4563"
         inkscape:connector-curvature="0" />
      <path
         style="fill:none;fill-rule:evenodd;stroke:#000000;stroke-width:1px;stroke-linecap:butt;stroke-linejoin:miter;stroke-opacity:1"
         d="m 280,442.36218 0,30"
         id="path4565"
         inkscape:connector-curvature="0" />
    </g>
    <g
       transform="translate(-10,-240)"
       id="g4575">
      <text
         xml:space="preserve"
         style="font-style:normal;font-weight:normal;font-size:15px;line-height:125%;font-family:sans-serif;letter-spacing:0px;word-spacing:0px;fill:#000000;fill-opacity:1;stroke:none;stroke-width:1px;stroke-linecap:butt;stroke-linejoin:miter;stroke-opacity:1"
         x="199.15479"
         y="462.95422"
         id="text4577"
         sodipodi:linespacing="125%"><tspan
           sodipodi:role="line"
           id="tspan4579"
           x="199.15479"
           y="462.95422">Domain</tspan></text>
      <rect
         style="opacity:0.95;fill:none;stroke:#008000"
         id="rect4581"
         width="140"
         height="30"
         x="170"
         y="442.36218" />
      <path
         inkscape:connector-curvature="0"
         id="path4583"
         d="m 299.5,442.3622 0,30"
         style="fill:none;fill-rule:evenodd;stroke:#000000;stroke-width:1px;stroke-linecap:butt;stroke-linejoin:miter;stroke-opacity:1" />
      <path
         inkscape:connector-curvature="0"
         id="path4585"
         d="m 290,442.36218 0,30"
         style="fill:none;fill-rule:evenodd;stroke:#000000;stroke-width:1px;stroke-linecap:butt;stroke-linejoin:miter;stroke-opacity:1" />
      <path
         inkscape:connector-curvature="0"
         id="path4587"
         d="m 280,442.36218 0,30"
         style="fill:none;fill-rule:evenodd;stroke:#000000;stroke-width:1px;stroke-linecap:butt;stroke-linejoin:miter;stroke-opacity:1" />
    </g>
    <g
       transform="translate(60,-30)"
       id="g4604">
      <text
         xml:space="preserve"
         style="font-style:normal;font-weight:normal;font-size:15px;line-height:125%;font-family:sans-serif;letter-spacing:0px;word-spacing:0px;fill:#000000;fill-opacity:1;stroke:none;stroke-width:1px;stroke-linecap:butt;stroke-linejoin:miter;stroke-opacity:1"
         x="194.59351"
         y="302.95422"
         id="text4485"
         sodipodi:linespacing="125%"><tspan
           sodipodi:role="line"
           id="tspan4487"
           x="194.59351"
           y="302.95422">Solution</tspan></text>
      <rect
         style="opacity:0.95;fill:none;stroke:#008000"
         id="rect4589"
         width="110"
         height="30"
         x="170"
         y="282.36218" />
    </g>
    <g
       transform="translate(-80,-62)"
       id="g4599">
      <text
         sodipodi:linespacing="125%"
         id="text4535"
         y="234.95422"
         x="200.9436"
         style="font-style:normal;font-weight:normal;font-size:15px;line-height:125%;font-family:sans-serif;letter-spacing:0px;word-spacing:0px;fill:#000000;fill-opacity:1;stroke:none;stroke-width:1px;stroke-linecap:butt;stroke-linejoin:miter;stroke-opacity:1"
         xml:space="preserve"><tspan
           y="234.95422"
           x="200.9436"
           id="tspan4537"
           sodipodi:role="line">Solver</tspan></text>
      <rect
         y="214.36218"
         x="170"
         height="30"
         width="110"
         id="rect4591"
         style="opacity:0.95;fill:none;stroke:#008000" />
    </g>
    <path
       inkscape:connector-curvature="0"
       id="path4609"
       d="m 140,182.36218 0,30 20,0"
       style="fill:none;fill-rule:evenodd;stroke:#000000;stroke-width:1px;stroke-linecap:butt;stroke-linejoin:miter;stroke-opacity:1" />
    <path
       inkscape:connector-curvature="0"
       id="path4611"
       d="m 210,232.36218 0,30 20,0"
       style="fill:none;fill-rule:evenodd;stroke:#000000;stroke-width:1px;stroke-linecap:butt;stroke-linejoin:miter;stroke-opacity:1" />
    <path
       inkscape:connector-curvature="0"
       id="path4613"
       d="m 210,262.36218 0,50 20,0"
       style="fill:none;fill-rule:evenodd;stroke:#000000;stroke-width:1px;stroke-linecap:butt;stroke-linejoin:miter;stroke-opacity:1" />
    <g
       ns0:text="$\\vC{y} = \\begin{Bmatrix} \n\\vC{u} \\\\\n\\vC{T} \n\\end{Bmatrix}$"
       ns0:preamble=""
       transform="matrix(1.5,0,0,1.5,-236.20382,127.23018)"
       id="g4733">
      <defs
         id="defs4735">
        <g
           id="g4737">
          <symbol
             style="overflow:visible"
             overflow="visible"
             id="textext-d40c1471-0">
            <path
               inkscape:connector-curvature="0"
               style="stroke:none"
               d=""
               id="path4740" />
          </symbol>
          <symbol
             style="overflow:visible"
             overflow="visible"
             id="textext-d40c1471-1">
            <path
               inkscape:connector-curvature="0"
               style="stroke:none"
               d="m 5.75,-3.765625 c 0.046875,-0.171875 0.046875,-0.1875 0.046875,-0.21875 0,-0.21875 -0.15625,-0.4375 -0.46875,-0.4375 -0.515625,0 -0.640625,0.46875 -0.703125,0.734375 L 4.359375,-2.65625 C 4.25,-2.171875 4.0625,-1.40625 3.953125,-1 3.890625,-0.78125 3.59375,-0.53125 3.5625,-0.515625 3.453125,-0.453125 3.203125,-0.28125 2.875,-0.28125 c -0.578125,0 -0.59375,-0.5 -0.59375,-0.71875 0,-0.609375 0.3125,-1.390625 0.59375,-2.109375 C 2.96875,-3.375 3,-3.4375 3,-3.609375 3,-4.1875 2.421875,-4.5 1.875,-4.5 c -1.0625,0 -1.5625,1.34375 -1.5625,1.546875 0,0.140625 0.15625,0.140625 0.25,0.140625 0.109375,0 0.1875,0 0.21875,-0.125 0.328125,-1.109375 0.890625,-1.203125 1.03125,-1.203125 0.078125,0 0.171875,0 0.171875,0.203125 0,0.234375 -0.109375,0.484375 -0.171875,0.640625 -0.390625,1 -0.59375,1.578125 -0.59375,2.078125 0,1.140625 1,1.296875 1.578125,1.296875 0.25,0 0.59375,-0.03125 0.96875,-0.296875 C 3.484375,1 2.734375,1.65625 2.046875,1.65625 1.90625,1.65625 1.640625,1.640625 1.4375,1.515625 1.75,1.390625 1.90625,1.109375 1.90625,0.84375 1.90625,0.484375 1.625,0.390625 1.421875,0.390625 c -0.359375,0 -0.71875,0.3125 -0.71875,0.75 0,0.515625 0.53125,0.875 1.34375,0.875 1.140625,0 2.453125,-0.765625 2.765625,-2 z m 0,0"
               id="path4743" />
          </symbol>
          <symbol
             style="overflow:visible"
             overflow="visible"
             id="textext-d40c1471-2">
            <path
               inkscape:connector-curvature="0"
               style="stroke:none"
               d="m 5.609375,-3.15625 c 0.078125,-0.28125 0.1875,-0.765625 0.1875,-0.828125 0,-0.21875 -0.15625,-0.4375 -0.46875,-0.4375 -0.15625,0 -0.515625,0.078125 -0.65625,0.53125 -0.03125,0.125 -0.484375,1.9375 -0.5625,2.265625 -0.0625,0.234375 -0.125,0.515625 -0.15625,0.703125 C 3.78125,-0.6875 3.390625,-0.28125 2.875,-0.28125 c -0.578125,0 -0.59375,-0.5 -0.59375,-0.71875 0,-0.609375 0.3125,-1.390625 0.59375,-2.109375 C 2.96875,-3.375 3,-3.4375 3,-3.609375 3,-4.1875 2.421875,-4.5 1.875,-4.5 c -1.0625,0 -1.5625,1.34375 -1.5625,1.546875 0,0.140625 0.15625,0.140625 0.25,0.140625 0.109375,0 0.1875,0 0.21875,-0.125 0.328125,-1.109375 0.875,-1.203125 1.03125,-1.203125 0.078125,0 0.171875,0 0.171875,0.203125 0,0.234375 -0.125,0.515625 -0.15625,0.625 -0.421875,1.046875 -0.609375,1.609375 -0.609375,2.09375 0,1.140625 1,1.296875 1.578125,1.296875 0.296875,0 0.734375,-0.03125 1.265625,-0.546875 0.328125,0.484375 0.90625,0.546875 1.140625,0.546875 0.375,0 0.65625,-0.203125 0.875,-0.5625 0.234375,-0.40625 0.375,-0.9375 0.375,-0.984375 0,-0.140625 -0.15625,-0.140625 -0.25,-0.140625 -0.109375,0 -0.140625,0 -0.1875,0.046875 -0.03125,0.015625 -0.03125,0.03125 -0.078125,0.28125 -0.203125,0.78125 -0.421875,1 -0.6875,1 -0.140625,0 -0.21875,-0.09375 -0.21875,-0.359375 0,-0.171875 0.03125,-0.34375 0.125,-0.734375 0.078125,-0.28125 0.171875,-0.671875 0.234375,-0.890625 z m 0,0"
               id="path4746" />
          </symbol>
          <symbol
             style="overflow:visible"
             overflow="visible"
             id="textext-d40c1471-3">
            <path
               inkscape:connector-curvature="0"
               style="stroke:none"
               d="M 4.921875,-6.078125 C 4.953125,-6.234375 4.96875,-6.25 5.15625,-6.265625 l 0.421875,0 c 0.953125,0 1.4375,0.0625 1.4375,0.890625 0,0.265625 -0.03125,0.4375 -0.0625,0.6875 0,0.046875 -0.03125,0.15625 -0.03125,0.171875 0,0.1875 0.1875,0.1875 0.25,0.1875 0.1875,0 0.21875,-0.078125 0.25,-0.28125 l 0.28125,-1.921875 c 0,-0.203125 -0.140625,-0.203125 -0.34375,-0.203125 l -6.046875,0 c -0.234375,0 -0.296875,0 -0.359375,0.203125 L 0.3125,-4.6875 c 0,0.015625 -0.0625,0.15625 -0.0625,0.1875 0,0.171875 0.1875,0.171875 0.234375,0.171875 0.171875,0 0.1875,-0.046875 0.265625,-0.25 0.53125,-1.453125 0.875,-1.6875 2.296875,-1.6875 0.296875,0 0.3125,0 0.515625,0.015625 l -1.421875,5.734375 c -0.0625,0 -0.328125,0.046875 -0.828125,0.046875 l -0.421875,0 c -0.1875,0 -0.359375,0 -0.359375,0.28125 C 0.53125,0 0.703125,0 0.765625,0 c 0.3125,0 0.625,-0.015625 0.953125,-0.015625 0.328125,0 0.65625,-0.015625 0.984375,-0.015625 0.34375,0 0.671875,0.015625 1.015625,0.015625 C 4.03125,-0.015625 4.359375,0 4.671875,0 c 0.125,0 0.3125,0 0.3125,-0.296875 0,-0.171875 -0.171875,-0.171875 -0.34375,-0.171875 l -0.40625,0 c -0.234375,0 -0.46875,0 -0.71875,-0.03125 z m 0,0"
               id="path4749" />
          </symbol>
          <symbol
             style="overflow:visible"
             overflow="visible"
             id="textext-d40c1471-4">
            <path
               inkscape:connector-curvature="0"
               style="stroke:none"
               d=""
               id="path4752" />
          </symbol>
          <symbol
             style="overflow:visible"
             overflow="visible"
             id="textext-d40c1471-5">
            <path
               inkscape:connector-curvature="0"
               style="stroke:none"
               d="m 6.84375,-3.265625 c 0.15625,0 0.34375,0 0.34375,-0.1875 C 7.1875,-3.65625 7,-3.65625 6.859375,-3.65625 l -5.96875,0 c -0.140625,0 -0.328125,0 -0.328125,0.203125 0,0.1875 0.1875,0.1875 0.328125,0.1875 z m 0.015625,1.9375 c 0.140625,0 0.328125,0 0.328125,-0.203125 0,-0.1875 -0.1875,-0.1875 -0.34375,-0.1875 l -5.953125,0 c -0.140625,0 -0.328125,0 -0.328125,0.1875 0,0.203125 0.1875,0.203125 0.328125,0.203125 z m 0,0"
               id="path4755" />
          </symbol>
          <symbol
             style="overflow:visible"
             overflow="visible"
             id="textext-d40c1471-6">
            <path
               inkscape:connector-curvature="0"
               style="stroke:none"
               d=""
               id="path4758" />
          </symbol>
          <symbol
             style="overflow:visible"
             overflow="visible"
             id="textext-d40c1471-7">
            <path
               inkscape:connector-curvature="0"
               style="stroke:none"
               d="m 4.140625,14.84375 c 0,-0.46875 0,-1.203125 -0.625,-2.015625 C 3.125,12.328125 2.5625,11.875 1.875,11.5625 3.8125,10.625 4.140625,9.1875 4.140625,8.625 l 0,-5.75 c 0,-0.609375 0,-1.890625 1.9375,-2.84375 0.078125,-0.046875 0.078125,-0.0625 0.078125,-0.203125 0,-0.21875 0,-0.234375 -0.21875,-0.234375 -0.140625,0 -0.15625,0 -0.421875,0.125 C 4.53125,0.203125 3.5625,1 3.34375,2.21875 3.3125,2.40625 3.3125,2.5 3.3125,3.171875 l 0,4.609375 c 0,0.296875 0,0.828125 0,0.9375 -0.09375,1.046875 -0.703125,1.953125 -1.84375,2.578125 -0.15625,0.09375 -0.15625,0.09375 -0.15625,0.25 0,0.171875 0,0.1875 0.140625,0.265625 0.671875,0.375 1.625,1.09375 1.828125,2.328125 C 3.3125,14.375 3.3125,14.390625 3.3125,14.5 l 0,5.921875 c 0,1.453125 1,2.390625 2.234375,2.984375 0.21875,0.109375 0.25,0.109375 0.390625,0.109375 0.21875,0 0.21875,0 0.21875,-0.21875 0,-0.15625 0,-0.171875 -0.078125,-0.21875 C 5.65625,22.875 4.375,22.234375 4.171875,20.796875 c -0.03125,-0.140625 -0.03125,-0.25 -0.03125,-0.84375 z m 0,0"
               id="path4761" />
          </symbol>
          <symbol
             style="overflow:visible"
             overflow="visible"
             id="textext-d40c1471-8">
            <path
               inkscape:connector-curvature="0"
               style="stroke:none"
               d="m 4.140625,14.6875 c 0,-1.1875 0.609375,-2.203125 1.9375,-2.921875 0.078125,-0.03125 0.078125,-0.04687 0.078125,-0.203125 0,-0.171875 0,-0.171875 -0.109375,-0.234375 C 4.25,10.375 4.140625,8.90625 4.140625,8.609375 l 0,-5.921875 C 4.140625,1.25 3.15625,0.296875 1.90625,-0.296875 1.6875,-0.40625 1.671875,-0.40625 1.53125,-0.40625 c -0.21875,0 -0.21875,0.015625 -0.21875,0.234375 0,0.140625 0,0.15625 0.078125,0.21875 0.4375,0.203125 1.703125,0.84375 1.90625,2.28125 0.015625,0.140625 0.015625,0.25 0.015625,0.84375 l 0,5.109375 c 0,0.46875 0,1.203125 0.640625,2 0.390625,0.5 0.953125,0.96875 1.640625,1.265625 -1.9375,0.9375 -2.28125,2.375 -2.28125,2.953125 l 0,5.734375 c 0,0.515625 0,1.09375 -0.578125,1.828125 -0.4375,0.5625 -0.9375,0.8125 -1.359375,1.03125 -0.0625,0.03125 -0.0625,0.07813 -0.0625,0.203125 0,0.203125 0,0.21875 0.21875,0.21875 0.140625,0 0.15625,0 0.40625,-0.125 1,-0.484375 1.96875,-1.265625 2.171875,-2.484375 0.03125,-0.203125 0.03125,-0.296875 0.03125,-0.953125 z m 0,0"
               id="path4764" />
          </symbol>
        </g>
      </defs>
      <g
         id="textext-d40c1471-9">
        <g
           style="fill:#000000;fill-opacity:1"
           id="g4767">
          <use
             height="100%"
             width="100%"
             xlink:href="#textext-d40c1471-1"
             x="223.43201"
             y="139.248"
             id="use4769" />
        </g>
        <g
           style="fill:#000000;fill-opacity:1"
           id="g4771">
          <use
             height="100%"
             width="100%"
             xlink:href="#textext-d40c1471-5"
             x="232.44901"
             y="139.248"
             id="use4773" />
        </g>
        <g
           style="fill:#000000;fill-opacity:1"
           id="g4775">
          <use
             height="100%"
             width="100%"
             xlink:href="#textext-d40c1471-7"
             x="242.965"
             y="125.2"
             id="use4777" />
        </g>
        <g
           style="fill:#000000;fill-opacity:1"
           id="g4779">
          <use
             height="100%"
             width="100%"
             xlink:href="#textext-d40c1471-2"
             x="251.01199"
             y="133.17101"
             id="use4781" />
        </g>
        <g
           style="fill:#000000;fill-opacity:1"
           id="g4783">
          <use
             height="100%"
             width="100%"
             xlink:href="#textext-d40c1471-3"
             x="250.437"
             y="145.12601"
             id="use4785" />
        </g>
        <g
           style="fill:#000000;fill-opacity:1"
           id="g4787">
          <use
             height="100%"
             width="100%"
             xlink:href="#textext-d40c1471-8"
             x="258.371"
             y="125.2"
             id="use4789" />
        </g>
      </g>
    </g>
    <g
       id="g4919"
       ns0:preamble=""
       ns0:text="$\\vC{\\bar{y}} = \\begin{Bmatrix}\n\\vC{y} \\\\\n\\vC{\\lambda}\n\\end{Bmatrix}$"
       transform="matrix(1.5,0,0,1.5,-235.26556,67.230178)">
      <defs
         id="defs4921">
        <g
           id="g4923">
          <symbol
             id="textext-b4dae735-0"
             overflow="visible"
             style="overflow:visible">
            <path
               id="path4926"
               d=""
               style="stroke:none"
               inkscape:connector-curvature="0" />
          </symbol>
          <symbol
             id="textext-b4dae735-1"
             overflow="visible"
             style="overflow:visible">
            <path
               id="path4929"
               d="m 4.921875,-5.53125 0,-0.515625 -4.125,0 0,0.515625 z m 0,0"
               style="stroke:none"
               inkscape:connector-curvature="0" />
          </symbol>
          <symbol
             id="textext-b4dae735-2"
             overflow="visible"
             style="overflow:visible">
            <path
               id="path4932"
               d=""
               style="stroke:none"
               inkscape:connector-curvature="0" />
          </symbol>
          <symbol
             id="textext-b4dae735-3"
             overflow="visible"
             style="overflow:visible">
            <path
               id="path4935"
               d="m 5.75,-3.765625 c 0.046875,-0.171875 0.046875,-0.1875 0.046875,-0.21875 0,-0.21875 -0.15625,-0.4375 -0.46875,-0.4375 -0.515625,0 -0.640625,0.46875 -0.703125,0.734375 L 4.359375,-2.65625 C 4.25,-2.171875 4.0625,-1.40625 3.953125,-1 3.890625,-0.78125 3.59375,-0.53125 3.5625,-0.515625 3.453125,-0.453125 3.203125,-0.28125 2.875,-0.28125 c -0.578125,0 -0.59375,-0.5 -0.59375,-0.71875 0,-0.609375 0.3125,-1.390625 0.59375,-2.109375 C 2.96875,-3.375 3,-3.4375 3,-3.609375 3,-4.1875 2.421875,-4.5 1.875,-4.5 c -1.0625,0 -1.5625,1.34375 -1.5625,1.546875 0,0.140625 0.15625,0.140625 0.25,0.140625 0.109375,0 0.1875,0 0.21875,-0.125 0.328125,-1.109375 0.890625,-1.203125 1.03125,-1.203125 0.078125,0 0.171875,0 0.171875,0.203125 0,0.234375 -0.109375,0.484375 -0.171875,0.640625 -0.390625,1 -0.59375,1.578125 -0.59375,2.078125 0,1.140625 1,1.296875 1.578125,1.296875 0.25,0 0.59375,-0.03125 0.96875,-0.296875 C 3.484375,1 2.734375,1.65625 2.046875,1.65625 1.90625,1.65625 1.640625,1.640625 1.4375,1.515625 1.75,1.390625 1.90625,1.109375 1.90625,0.84375 1.90625,0.484375 1.625,0.390625 1.421875,0.390625 c -0.359375,0 -0.71875,0.3125 -0.71875,0.75 0,0.515625 0.53125,0.875 1.34375,0.875 1.140625,0 2.453125,-0.765625 2.765625,-2 z m 0,0"
               style="stroke:none"
               inkscape:connector-curvature="0" />
          </symbol>
          <symbol
             id="textext-b4dae735-4"
             overflow="visible"
             style="overflow:visible">
            <path
               id="path4938"
               d="m 3.578125,-6.359375 c -0.125,-0.28125 -0.25,-0.5625 -1.46875,-0.5625 -0.234375,0 -0.40625,0 -0.40625,0.1875 0,0.15625 0.140625,0.171875 0.15625,0.171875 0.15625,0.015625 0.265625,0.03125 0.421875,0.265625 0.125,0.203125 1.15625,2.5625 1.390625,3.09375 l -2.890625,2.3125 c -0.109375,0.09375 -0.3125,0.265625 -0.3125,0.53125 0,0.28125 0.234375,0.484375 0.484375,0.484375 0.265625,0 0.46875,-0.21875 0.75,-0.53125 C 1.71875,-0.421875 2.21875,-0.9375 2.25,-0.984375 c 0.375,-0.375 1.265625,-1.34375 1.640625,-1.71875 l 0.953125,2.15625 C 4.875,-0.46875 4.96875,-0.28125 5,-0.203125 c 0.078125,0.1875 0.28125,0.28125 0.625,0.28125 l 0.5,0 c 0.171875,0 0.296875,0 0.296875,-0.140625 0,-0.046875 -0.03125,-0.09375 -0.046875,-0.109375 -0.078125,-0.09375 -0.171875,-0.28125 -0.25,-0.4375 z m 0,0"
               style="stroke:none"
               inkscape:connector-curvature="0" />
          </symbol>
          <symbol
             id="textext-b4dae735-5"
             overflow="visible"
             style="overflow:visible">
            <path
               id="path4941"
               d=""
               style="stroke:none"
               inkscape:connector-curvature="0" />
          </symbol>
          <symbol
             id="textext-b4dae735-6"
             overflow="visible"
             style="overflow:visible">
            <path
               id="path4944"
               d="m 6.84375,-3.265625 c 0.15625,0 0.34375,0 0.34375,-0.1875 C 7.1875,-3.65625 7,-3.65625 6.859375,-3.65625 l -5.96875,0 c -0.140625,0 -0.328125,0 -0.328125,0.203125 0,0.1875 0.1875,0.1875 0.328125,0.1875 z m 0.015625,1.9375 c 0.140625,0 0.328125,0 0.328125,-0.203125 0,-0.1875 -0.1875,-0.1875 -0.34375,-0.1875 l -5.953125,0 c -0.140625,0 -0.328125,0 -0.328125,0.1875 0,0.203125 0.1875,0.203125 0.328125,0.203125 z m 0,0"
               style="stroke:none"
               inkscape:connector-curvature="0" />
          </symbol>
          <symbol
             id="textext-b4dae735-7"
             overflow="visible"
             style="overflow:visible">
            <path
               id="path4947"
               d=""
               style="stroke:none"
               inkscape:connector-curvature="0" />
          </symbol>
          <symbol
             id="textext-b4dae735-8"
             overflow="visible"
             style="overflow:visible">
            <path
               id="path4950"
               d="m 4.140625,14.84375 c 0,-0.46875 0,-1.203125 -0.625,-2.015625 C 3.125,12.328125 2.5625,11.875 1.875,11.5625 3.8125,10.625 4.140625,9.1875 4.140625,8.625 l 0,-5.75 c 0,-0.609375 0,-1.890625 1.9375,-2.84375 0.078125,-0.046875 0.078125,-0.0625 0.078125,-0.203125 0,-0.21875 0,-0.234375 -0.21875,-0.234375 -0.140625,0 -0.15625,0 -0.421875,0.125 C 4.53125,0.203125 3.5625,1 3.34375,2.21875 3.3125,2.40625 3.3125,2.5 3.3125,3.171875 l 0,4.609375 c 0,0.296875 0,0.828125 0,0.9375 -0.09375,1.046875 -0.703125,1.953125 -1.84375,2.578125 -0.15625,0.09375 -0.15625,0.09375 -0.15625,0.25 0,0.171875 0,0.1875 0.140625,0.265625 0.671875,0.375 1.625,1.09375 1.828125,2.328125 C 3.3125,14.375 3.3125,14.390625 3.3125,14.5 l 0,5.921875 c 0,1.453125 1,2.390625 2.234375,2.984375 0.21875,0.109375 0.25,0.109375 0.390625,0.109375 0.21875,0 0.21875,0 0.21875,-0.21875 0,-0.15625 0,-0.171875 -0.078125,-0.21875 C 5.65625,22.875 4.375,22.234375 4.171875,20.796875 c -0.03125,-0.140625 -0.03125,-0.25 -0.03125,-0.84375 z m 0,0"
               style="stroke:none"
               inkscape:connector-curvature="0" />
          </symbol>
          <symbol
             id="textext-b4dae735-9"
             overflow="visible"
             style="overflow:visible">
            <path
               id="path4953"
               d="m 4.140625,14.6875 c 0,-1.1875 0.609375,-2.203125 1.9375,-2.921875 0.078125,-0.03125 0.078125,-0.04687 0.078125,-0.203125 0,-0.171875 0,-0.171875 -0.109375,-0.234375 C 4.25,10.375 4.140625,8.90625 4.140625,8.609375 l 0,-5.921875 C 4.140625,1.25 3.15625,0.296875 1.90625,-0.296875 1.6875,-0.40625 1.671875,-0.40625 1.53125,-0.40625 c -0.21875,0 -0.21875,0.015625 -0.21875,0.234375 0,0.140625 0,0.15625 0.078125,0.21875 0.4375,0.203125 1.703125,0.84375 1.90625,2.28125 0.015625,0.140625 0.015625,0.25 0.015625,0.84375 l 0,5.109375 c 0,0.46875 0,1.203125 0.640625,2 0.390625,0.5 0.953125,0.96875 1.640625,1.265625 -1.9375,0.9375 -2.28125,2.375 -2.28125,2.953125 l 0,5.734375 c 0,0.515625 0,1.09375 -0.578125,1.828125 -0.4375,0.5625 -0.9375,0.8125 -1.359375,1.03125 -0.0625,0.03125 -0.0625,0.07813 -0.0625,0.203125 0,0.203125 0,0.21875 0.21875,0.21875 0.140625,0 0.15625,0 0.40625,-0.125 1,-0.484375 1.96875,-1.265625 2.171875,-2.484375 0.03125,-0.203125 0.03125,-0.296875 0.03125,-0.953125 z m 0,0"
               style="stroke:none"
               inkscape:connector-curvature="0" />
          </symbol>
        </g>
      </defs>
      <g
         id="textext-b4dae735-10">
        <g
           id="g4956"
           style="fill:#000000;fill-opacity:1">
          <use
             id="use4958"
             y="139.248"
             x="224.32899"
             xlink:href="#textext-b4dae735-1"
             width="100%"
             height="100%" />
        </g>
        <g
           id="g4960"
           style="fill:#000000;fill-opacity:1">
          <use
             id="use4962"
             y="139.248"
             x="223.43201"
             xlink:href="#textext-b4dae735-3"
             width="100%"
             height="100%" />
        </g>
        <g
           id="g4964"
           style="fill:#000000;fill-opacity:1">
          <use
             id="use4966"
             y="139.248"
             x="232.44901"
             xlink:href="#textext-b4dae735-6"
             width="100%"
             height="100%" />
        </g>
        <g
           id="g4968"
           style="fill:#000000;fill-opacity:1">
          <use
             id="use4970"
             y="125.2"
             x="242.965"
             xlink:href="#textext-b4dae735-8"
             width="100%"
             height="100%" />
        </g>
        <g
           id="g4972"
           style="fill:#000000;fill-opacity:1">
          <use
             id="use4974"
             y="133.17101"
             x="250.65401"
             xlink:href="#textext-b4dae735-3"
             width="100%"
             height="100%" />
        </g>
        <g
           id="g4976"
           style="fill:#000000;fill-opacity:1">
          <use
             id="use4978"
             y="145.12601"
             x="250.437"
             xlink:href="#textext-b4dae735-4"
             width="100%"
             height="100%" />
        </g>
        <g
           id="g4980"
           style="fill:#000000;fill-opacity:1">
          <use
             id="use4982"
             y="125.2"
             x="257.12"
             xlink:href="#textext-b4dae735-9"
             width="100%"
             height="100%" />
        </g>
      </g>
    </g>
    <g
       ns0:text="$\\vC{u} = \\begin{Bmatrix} \nu_x^0 \\\\\nu_y^0 \\\\\nu_x^1 \\\\\nu_y^1 \\\\\nu_x^2 \\\\\nu_y^2 \n\\end{Bmatrix}$"
       ns0:preamble=""
       transform="matrix(1.5,0,0,1.5,-190.48183,160.69281)"
       id="g5256">
      <defs
         id="defs5258">
        <g
           id="g5260">
          <symbol
             style="overflow:visible"
             overflow="visible"
             id="textext-81c4d2e1-0">
            <path
               inkscape:connector-curvature="0"
               style="stroke:none"
               d=""
               id="path5263" />
          </symbol>
          <symbol
             style="overflow:visible"
             overflow="visible"
             id="textext-81c4d2e1-1">
            <path
               inkscape:connector-curvature="0"
               style="stroke:none"
               d="m 5.609375,-3.15625 c 0.078125,-0.28125 0.1875,-0.765625 0.1875,-0.828125 0,-0.21875 -0.15625,-0.4375 -0.46875,-0.4375 -0.15625,0 -0.515625,0.078125 -0.65625,0.53125 -0.03125,0.125 -0.484375,1.9375 -0.5625,2.265625 -0.0625,0.234375 -0.125,0.515625 -0.15625,0.703125 C 3.78125,-0.6875 3.390625,-0.28125 2.875,-0.28125 c -0.578125,0 -0.59375,-0.5 -0.59375,-0.71875 0,-0.609375 0.3125,-1.390625 0.59375,-2.109375 C 2.96875,-3.375 3,-3.4375 3,-3.609375 3,-4.1875 2.421875,-4.5 1.875,-4.5 c -1.0625,0 -1.5625,1.34375 -1.5625,1.546875 0,0.140625 0.15625,0.140625 0.25,0.140625 0.109375,0 0.1875,0 0.21875,-0.125 0.328125,-1.109375 0.875,-1.203125 1.03125,-1.203125 0.078125,0 0.171875,0 0.171875,0.203125 0,0.234375 -0.125,0.515625 -0.15625,0.625 -0.421875,1.046875 -0.609375,1.609375 -0.609375,2.09375 0,1.140625 1,1.296875 1.578125,1.296875 0.296875,0 0.734375,-0.03125 1.265625,-0.546875 0.328125,0.484375 0.90625,0.546875 1.140625,0.546875 0.375,0 0.65625,-0.203125 0.875,-0.5625 0.234375,-0.40625 0.375,-0.9375 0.375,-0.984375 0,-0.140625 -0.15625,-0.140625 -0.25,-0.140625 -0.109375,0 -0.140625,0 -0.1875,0.046875 -0.03125,0.015625 -0.03125,0.03125 -0.078125,0.28125 -0.203125,0.78125 -0.421875,1 -0.6875,1 -0.140625,0 -0.21875,-0.09375 -0.21875,-0.359375 0,-0.171875 0.03125,-0.34375 0.125,-0.734375 0.078125,-0.28125 0.171875,-0.671875 0.234375,-0.890625 z m 0,0"
               id="path5266" />
          </symbol>
          <symbol
             style="overflow:visible"
             overflow="visible"
             id="textext-81c4d2e1-2">
            <path
               inkscape:connector-curvature="0"
               style="stroke:none"
               d=""
               id="path5269" />
          </symbol>
          <symbol
             style="overflow:visible"
             overflow="visible"
             id="textext-81c4d2e1-3">
            <path
               inkscape:connector-curvature="0"
               style="stroke:none"
               d="m 6.84375,-3.265625 c 0.15625,0 0.34375,0 0.34375,-0.1875 C 7.1875,-3.65625 7,-3.65625 6.859375,-3.65625 l -5.96875,0 c -0.140625,0 -0.328125,0 -0.328125,0.203125 0,0.1875 0.1875,0.1875 0.328125,0.1875 z m 0.015625,1.9375 c 0.140625,0 0.328125,0 0.328125,-0.203125 0,-0.1875 -0.1875,-0.1875 -0.34375,-0.1875 l -5.953125,0 c -0.140625,0 -0.328125,0 -0.328125,0.1875 0,0.203125 0.1875,0.203125 0.328125,0.203125 z m 0,0"
               id="path5272" />
          </symbol>
          <symbol
             style="overflow:visible"
             overflow="visible"
             id="textext-81c4d2e1-4">
            <path
               inkscape:connector-curvature="0"
               style="stroke:none"
               d=""
               id="path5275" />
          </symbol>
          <symbol
             style="overflow:visible"
             overflow="visible"
             id="textext-81c4d2e1-5">
            <path
               inkscape:connector-curvature="0"
               style="stroke:none"
               d="M 5.03125,4.515625 C 5.03125,3.703125 5.25,1.796875 7.015625,0.53125 7.140625,0.4375 7.15625,0.421875 7.15625,0.25 7.15625,0.015625 7.140625,0.015625 6.890625,0.015625 l -0.15625,0 c -2.140625,1.15625 -2.90625,3.03125 -2.90625,4.5 l 0,4.28125 c 0,0.265625 0.015625,0.28125 0.28125,0.28125 l 0.640625,0 c 0.265625,0 0.28125,-0.015625 0.28125,-0.28125 z m 0,0"
               id="path5278" />
          </symbol>
          <symbol
             style="overflow:visible"
             overflow="visible"
             id="textext-81c4d2e1-6">
            <path
               inkscape:connector-curvature="0"
               style="stroke:none"
               d="M 5.03125,0.171875 C 5.03125,-0.09375 5.015625,-0.09375 4.75,-0.09375 l -0.640625,0 c -0.265625,0 -0.28125,0 -0.28125,0.265625 l 0,2.65625 c 0,0.25 0.015625,0.265625 0.28125,0.265625 l 0.640625,0 c 0.265625,0 0.28125,-0.015625 0.28125,-0.265625 z m 0,0"
               id="path5281" />
          </symbol>
          <symbol
             style="overflow:visible"
             overflow="visible"
             id="textext-81c4d2e1-7">
            <path
               inkscape:connector-curvature="0"
               style="stroke:none"
               d="m 3.828125,17.78125 c 0,0.25 0.015625,0.265625 0.28125,0.265625 l 0.640625,0 c 0.265625,0 0.28125,-0.01563 0.28125,-0.265625 l 0,-4.21875 c 0,-1.203125 -0.515625,-3.234375 -2.75,-4.59375 2.25,-1.359375 2.75,-3.421875 2.75,-4.59375 l 0,-4.203125 C 5.03125,-0.09375 5.015625,-0.09375 4.75,-0.09375 l -0.640625,0 c -0.265625,0 -0.28125,0 -0.28125,0.265625 l 0,4.21875 c 0,0.828125 -0.171875,2.90625 -2.015625,4.296875 -0.109375,0.09375 -0.125,0.109375 -0.125,0.28125 0,0.1875 0.015625,0.1875 0.125,0.28125 0.265625,0.203125 0.953125,0.734375 1.421875,1.734375 0.390625,0.796875 0.59375,1.6875 0.59375,2.578125 z m 0,0"
               id="path5284" />
          </symbol>
          <symbol
             style="overflow:visible"
             overflow="visible"
             id="textext-81c4d2e1-8">
            <path
               inkscape:connector-curvature="0"
               style="stroke:none"
               d="m 6.890625,8.96875 c 0.25,0 0.265625,-0.015625 0.265625,-0.25 C 7.15625,8.546875 7.140625,8.53125 7.109375,8.5 6.796875,8.28125 6.078125,7.765625 5.609375,6.84375 5.21875,6.09375 5.03125,5.328125 5.03125,4.453125 l 0,-4.28125 C 5.03125,-0.09375 5.015625,-0.09375 4.75,-0.09375 l -0.640625,0 c -0.265625,0 -0.28125,0 -0.28125,0.265625 l 0,4.28125 c 0,1.484375 0.765625,3.359375 2.90625,4.515625 z m 0,0"
               id="path5287" />
          </symbol>
          <symbol
             style="overflow:visible"
             overflow="visible"
             id="textext-81c4d2e1-9">
            <path
               inkscape:connector-curvature="0"
               style="stroke:none"
               d="m 3.828125,8.796875 c 0,0.265625 0.015625,0.28125 0.28125,0.28125 l 0.640625,0 c 0.265625,0 0.28125,-0.015625 0.28125,-0.28125 l 0,-4.28125 c 0,-1.46875 -0.78125,-3.34375 -2.921875,-4.5 l -0.140625,0 c -0.265625,0 -0.28125,0 -0.28125,0.234375 0,0.171875 0.015625,0.1875 0.0625,0.21875 0.296875,0.234375 1.015625,0.734375 1.484375,1.65625 0.28125,0.53125 0.59375,1.3125 0.59375,2.390625 z m 0,0"
               id="path5290" />
          </symbol>
          <symbol
             style="overflow:visible"
             overflow="visible"
             id="textext-81c4d2e1-10">
            <path
               inkscape:connector-curvature="0"
               style="stroke:none"
               d="m 5.03125,13.5625 c 0,-0.84375 0.171875,-2.921875 2,-4.3125 0.109375,-0.09375 0.125,-0.09375 0.125,-0.28125 0,-0.171875 -0.015625,-0.1875 -0.125,-0.28125 C 6.78125,8.5 6.09375,7.96875 5.609375,6.953125 5.21875,6.15625 5.03125,5.28125 5.03125,4.390625 l 0,-4.21875 C 5.03125,-0.09375 5.015625,-0.09375 4.75,-0.09375 l -0.640625,0 c -0.265625,0 -0.28125,0 -0.28125,0.265625 l 0,4.203125 c 0,1.203125 0.515625,3.234375 2.734375,4.59375 -2.25,1.375 -2.734375,3.421875 -2.734375,4.59375 l 0,4.21875 c 0,0.25 0.015625,0.265625 0.28125,0.265625 l 0.640625,0 c 0.265625,0 0.28125,-0.01563 0.28125,-0.265625 z m 0,0"
               id="path5293" />
          </symbol>
          <symbol
             style="overflow:visible"
             overflow="visible"
             id="textext-81c4d2e1-11">
            <path
               inkscape:connector-curvature="0"
               style="stroke:none"
               d="m 3.828125,4.453125 c 0,0.875 -0.234375,2.75 -2,3.984375 -0.125,0.09375 -0.140625,0.109375 -0.140625,0.28125 0,0.234375 0.015625,0.25 0.28125,0.25 l 0.140625,0 C 4.265625,7.8125 5.03125,5.921875 5.03125,4.453125 l 0,-4.28125 C 5.03125,-0.09375 5.015625,-0.09375 4.75,-0.09375 l -0.640625,0 c -0.265625,0 -0.28125,0 -0.28125,0.265625 z m 0,0"
               id="path5296" />
          </symbol>
          <symbol
             style="overflow:visible"
             overflow="visible"
             id="textext-81c4d2e1-12">
            <path
               inkscape:connector-curvature="0"
               style="stroke:none"
               d=""
               id="path5299" />
          </symbol>
          <symbol
             style="overflow:visible"
             overflow="visible"
             id="textext-81c4d2e1-13">
            <path
               inkscape:connector-curvature="0"
               style="stroke:none"
               d="M 3.484375,-0.5625 C 3.59375,-0.15625 3.953125,0.109375 4.375,0.109375 4.71875,0.109375 4.953125,-0.125 5.109375,-0.4375 5.28125,-0.796875 5.40625,-1.40625 5.40625,-1.421875 c 0,-0.109375 -0.078125,-0.109375 -0.109375,-0.109375 -0.109375,0 -0.109375,0.046875 -0.140625,0.1875 -0.140625,0.5625 -0.328125,1.234375 -0.75,1.234375 -0.203125,0 -0.3125,-0.125 -0.3125,-0.453125 0,-0.21875 0.125,-0.6875 0.203125,-1.046875 L 4.578125,-2.6875 C 4.609375,-2.828125 4.703125,-3.203125 4.75,-3.359375 4.796875,-3.59375 4.890625,-3.96875 4.890625,-4.03125 c 0,-0.171875 -0.140625,-0.265625 -0.28125,-0.265625 -0.046875,0 -0.3125,0.015625 -0.390625,0.34375 -0.1875,0.734375 -0.625,2.484375 -0.75,3 -0.015625,0.046875 -0.40625,0.84375 -1.140625,0.84375 -0.515625,0 -0.609375,-0.453125 -0.609375,-0.8125 0,-0.5625 0.28125,-1.34375 0.53125,-2.03125 0.125,-0.3125 0.171875,-0.453125 0.171875,-0.640625 0,-0.4375 -0.3125,-0.8125 -0.8125,-0.8125 -0.953125,0 -1.3125,1.453125 -1.3125,1.53125 0,0.109375 0.09375,0.109375 0.109375,0.109375 0.109375,0 0.109375,-0.03125 0.15625,-0.1875 0.25,-0.859375 0.640625,-1.234375 1.015625,-1.234375 0.09375,0 0.25,0.015625 0.25,0.328125 0,0.234375 -0.109375,0.53125 -0.171875,0.671875 -0.375,1 -0.578125,1.609375 -0.578125,2.09375 0,0.953125 0.6875,1.203125 1.21875,1.203125 0.65625,0 1.015625,-0.453125 1.1875,-0.671875 z m 0,0"
               id="path5302" />
          </symbol>
          <symbol
             style="overflow:visible"
             overflow="visible"
             id="textext-81c4d2e1-14">
            <path
               inkscape:connector-curvature="0"
               style="stroke:none"
               d=""
               id="path5305" />
          </symbol>
          <symbol
             style="overflow:visible"
             overflow="visible"
             id="textext-81c4d2e1-15">
            <path
               inkscape:connector-curvature="0"
               style="stroke:none"
               d="M 3.59375,-2.21875 C 3.59375,-2.984375 3.5,-3.546875 3.1875,-4.03125 2.96875,-4.34375 2.53125,-4.625 1.984375,-4.625 c -1.625,0 -1.625,1.90625 -1.625,2.40625 0,0.5 0,2.359375 1.625,2.359375 1.609375,0 1.609375,-1.859375 1.609375,-2.359375 z M 1.984375,-0.0625 c -0.328125,0 -0.75,-0.1875 -0.890625,-0.75 C 1,-1.21875 1,-1.796875 1,-2.3125 1,-2.828125 1,-3.359375 1.09375,-3.734375 1.25,-4.28125 1.6875,-4.4375 1.984375,-4.4375 c 0.375,0 0.734375,0.234375 0.859375,0.640625 0.109375,0.375 0.125,0.875 0.125,1.484375 0,0.515625 0,1.03125 -0.09375,1.46875 -0.140625,0.640625 -0.609375,0.78125 -0.890625,0.78125 z m 0,0"
               id="path5308" />
          </symbol>
          <symbol
             style="overflow:visible"
             overflow="visible"
             id="textext-81c4d2e1-16">
            <path
               inkscape:connector-curvature="0"
               style="stroke:none"
               d="m 2.328125,-4.4375 c 0,-0.1875 0,-0.1875 -0.203125,-0.1875 -0.453125,0.4375 -1.078125,0.4375 -1.359375,0.4375 l 0,0.25 c 0.15625,0 0.625,0 1,-0.1875 l 0,3.546875 c 0,0.234375 0,0.328125 -0.6875,0.328125 l -0.265625,0 0,0.25 c 0.125,0 0.984375,-0.03125 1.234375,-0.03125 0.21875,0 1.09375,0.03125 1.25,0.03125 l 0,-0.25 -0.265625,0 c -0.703125,0 -0.703125,-0.09375 -0.703125,-0.328125 z m 0,0"
               id="path5311" />
          </symbol>
          <symbol
             style="overflow:visible"
             overflow="visible"
             id="textext-81c4d2e1-17">
            <path
               inkscape:connector-curvature="0"
               style="stroke:none"
               d="m 3.515625,-1.265625 -0.234375,0 c -0.015625,0.15625 -0.09375,0.5625 -0.1875,0.625 -0.046875,0.046875 -0.578125,0.046875 -0.6875,0.046875 l -1.28125,0 c 0.734375,-0.640625 0.984375,-0.84375 1.390625,-1.171875 0.515625,-0.40625 1,-0.84375 1,-1.5 0,-0.84375 -0.734375,-1.359375 -1.625,-1.359375 -0.859375,0 -1.453125,0.609375 -1.453125,1.25 0,0.34375 0.296875,0.390625 0.375,0.390625 0.15625,0 0.359375,-0.125 0.359375,-0.375 0,-0.125 -0.046875,-0.375 -0.40625,-0.375 C 0.984375,-4.21875 1.453125,-4.375 1.78125,-4.375 c 0.703125,0 1.0625,0.546875 1.0625,1.109375 0,0.609375 -0.4375,1.078125 -0.65625,1.328125 L 0.515625,-0.265625 C 0.4375,-0.203125 0.4375,-0.1875 0.4375,0 l 2.875,0 z m 0,0"
               id="path5314" />
          </symbol>
          <symbol
             style="overflow:visible"
             overflow="visible"
             id="textext-81c4d2e1-18">
            <path
               inkscape:connector-curvature="0"
               style="stroke:none"
               d=""
               id="path5317" />
          </symbol>
          <symbol
             style="overflow:visible"
             overflow="visible"
             id="textext-81c4d2e1-19">
            <path
               inkscape:connector-curvature="0"
               style="stroke:none"
               d="M 1.734375,-0.734375 C 1.671875,-0.5 1.4375,-0.125 1.078125,-0.125 c -0.015625,0 -0.234375,0 -0.375,-0.09375 0.28125,-0.09375 0.3125,-0.34375 0.3125,-0.390625 0,-0.15625 -0.125,-0.25 -0.28125,-0.25 -0.203125,0 -0.40625,0.15625 -0.40625,0.421875 0,0.34375 0.390625,0.5 0.734375,0.5 0.328125,0 0.609375,-0.1875 0.78125,-0.484375 C 2.015625,-0.0625 2.390625,0.0625 2.671875,0.0625 c 0.8125,0 1.234375,-0.859375 1.234375,-1.0625 0,-0.09375 -0.09375,-0.09375 -0.109375,-0.09375 -0.109375,0 -0.109375,0.046875 -0.140625,0.125 -0.140625,0.484375 -0.5625,0.84375 -0.953125,0.84375 -0.28125,0 -0.421875,-0.1875 -0.421875,-0.453125 0,-0.1875 0.171875,-0.8125 0.359375,-1.59375 C 2.78125,-2.703125 3.09375,-2.875 3.328125,-2.875 c 0.015625,0 0.21875,0 0.375,0.09375 -0.21875,0.0625 -0.3125,0.265625 -0.3125,0.390625 0,0.140625 0.125,0.25 0.28125,0.25 0.15625,0 0.390625,-0.125 0.390625,-0.421875 0,-0.390625 -0.453125,-0.515625 -0.71875,-0.515625 -0.359375,0 -0.640625,0.234375 -0.78125,0.5 -0.125,-0.28125 -0.453125,-0.5 -0.84375,-0.5 C 0.9375,-3.078125 0.5,-2.21875 0.5,-2 c 0,0.078125 0.09375,0.078125 0.109375,0.078125 0.09375,0 0.09375,-0.015625 0.140625,-0.109375 C 0.921875,-2.578125 1.359375,-2.875 1.703125,-2.875 1.9375,-2.875 2.125,-2.75 2.125,-2.421875 2.125,-2.28125 2.03125,-1.9375 1.96875,-1.6875 Z m 0,0"
               id="path5320" />
          </symbol>
          <symbol
             style="overflow:visible"
             overflow="visible"
             id="textext-81c4d2e1-20">
            <path
               inkscape:connector-curvature="0"
               style="stroke:none"
               d="M 3.875,-2.625 C 3.90625,-2.71875 3.90625,-2.734375 3.90625,-2.78125 3.90625,-2.921875 3.796875,-3 3.671875,-3 3.59375,-3 3.46875,-2.96875 3.390625,-2.84375 3.359375,-2.796875 3.3125,-2.578125 3.28125,-2.4375 L 3.125,-1.859375 c -0.03125,0.171875 -0.25,1.046875 -0.28125,1.125 0,0 -0.3125,0.609375 -0.84375,0.609375 -0.484375,0 -0.484375,-0.453125 -0.484375,-0.578125 0,-0.375 0.15625,-0.8125 0.375,-1.359375 C 1.96875,-2.28125 2,-2.359375 2,-2.484375 2,-2.8125 1.71875,-3.078125 1.34375,-3.078125 0.640625,-3.078125 0.328125,-2.125 0.328125,-2 c 0,0.078125 0.09375,0.078125 0.125,0.078125 0.09375,0 0.09375,-0.03125 0.125,-0.109375 C 0.75,-2.609375 1.046875,-2.875 1.328125,-2.875 1.4375,-2.875 1.5,-2.796875 1.5,-2.640625 c 0,0.171875 -0.0625,0.3125 -0.09375,0.40625 C 1.0625,-1.375 1,-1.125 1,-0.8125 1,-0.703125 1,-0.375 1.265625,-0.140625 1.484375,0.03125 1.78125,0.0625 1.96875,0.0625 2.25,0.0625 2.5,-0.03125 2.71875,-0.25 2.640625,0.140625 2.5625,0.4375 2.265625,0.78125 2.078125,1 1.796875,1.21875 1.421875,1.21875 c -0.046875,0 -0.375,0 -0.515625,-0.21875 0.375,-0.046875 0.375,-0.375 0.375,-0.390625 0,-0.21875 -0.203125,-0.265625 -0.265625,-0.265625 -0.171875,0 -0.40625,0.140625 -0.40625,0.46875 0,0.34375 0.328125,0.609375 0.828125,0.609375 C 2.140625,1.421875 3,0.875 3.21875,0 Z m 0,0"
               id="path5323" />
          </symbol>
        </g>
      </defs>
      <g
         id="textext-81c4d2e1-21">
        <g
           style="fill:#000000;fill-opacity:1"
           id="g5326">
          <use
             height="100%"
             width="100%"
             xlink:href="#textext-81c4d2e1-1"
             x="223.43201"
             y="163.507"
             id="use5328" />
        </g>
        <g
           style="fill:#000000;fill-opacity:1"
           id="g5330">
          <use
             height="100%"
             width="100%"
             xlink:href="#textext-81c4d2e1-3"
             x="232.98399"
             y="163.507"
             id="use5332" />
        </g>
        <g
           style="fill:#000000;fill-opacity:1"
           id="g5334">
          <use
             height="100%"
             width="100%"
             xlink:href="#textext-81c4d2e1-5"
             x="243.5"
             y="125.15"
             id="use5336" />
        </g>
        <g
           style="fill:#000000;fill-opacity:1"
           id="g5338">
          <use
             height="100%"
             width="100%"
             xlink:href="#textext-81c4d2e1-6"
             x="243.5"
             y="134.117"
             id="use5340" />
        </g>
        <g
           style="fill:#000000;fill-opacity:1"
           id="g5342">
          <use
             height="100%"
             width="100%"
             xlink:href="#textext-81c4d2e1-6"
             x="243.5"
             y="137.105"
             id="use5344" />
        </g>
        <g
           style="fill:#000000;fill-opacity:1"
           id="g5346">
          <use
             height="100%"
             width="100%"
             xlink:href="#textext-81c4d2e1-6"
             x="243.5"
             y="140.09399"
             id="use5348" />
        </g>
        <g
           style="fill:#000000;fill-opacity:1"
           id="g5350">
          <use
             height="100%"
             width="100%"
             xlink:href="#textext-81c4d2e1-6"
             x="243.5"
             y="143.08299"
             id="use5352" />
        </g>
        <g
           style="fill:#000000;fill-opacity:1"
           id="g5354">
          <use
             height="100%"
             width="100%"
             xlink:href="#textext-81c4d2e1-6"
             x="243.5"
             y="146.07201"
             id="use5356" />
        </g>
        <g
           style="fill:#000000;fill-opacity:1"
           id="g5358">
          <use
             height="100%"
             width="100%"
             xlink:href="#textext-81c4d2e1-6"
             x="243.5"
             y="149.061"
             id="use5360" />
        </g>
        <g
           style="fill:#000000;fill-opacity:1"
           id="g5362">
          <use
             height="100%"
             width="100%"
             xlink:href="#textext-81c4d2e1-7"
             x="243.5"
             y="152.05"
             id="use5364" />
        </g>
        <g
           style="fill:#000000;fill-opacity:1"
           id="g5366">
          <use
             height="100%"
             width="100%"
             xlink:href="#textext-81c4d2e1-6"
             x="243.5"
             y="169.983"
             id="use5368" />
        </g>
        <g
           style="fill:#000000;fill-opacity:1"
           id="g5370">
          <use
             height="100%"
             width="100%"
             xlink:href="#textext-81c4d2e1-6"
             x="243.5"
             y="172.97099"
             id="use5372" />
        </g>
        <g
           style="fill:#000000;fill-opacity:1"
           id="g5374">
          <use
             height="100%"
             width="100%"
             xlink:href="#textext-81c4d2e1-6"
             x="243.5"
             y="175.96001"
             id="use5376" />
        </g>
        <g
           style="fill:#000000;fill-opacity:1"
           id="g5378">
          <use
             height="100%"
             width="100%"
             xlink:href="#textext-81c4d2e1-6"
             x="243.5"
             y="178.94901"
             id="use5380" />
        </g>
        <g
           style="fill:#000000;fill-opacity:1"
           id="g5382">
          <use
             height="100%"
             width="100%"
             xlink:href="#textext-81c4d2e1-6"
             x="243.5"
             y="181.938"
             id="use5384" />
        </g>
        <g
           style="fill:#000000;fill-opacity:1"
           id="g5386">
          <use
             height="100%"
             width="100%"
             xlink:href="#textext-81c4d2e1-6"
             x="243.5"
             y="184.927"
             id="use5388" />
        </g>
        <g
           style="fill:#000000;fill-opacity:1"
           id="g5390">
          <use
             height="100%"
             width="100%"
             xlink:href="#textext-81c4d2e1-8"
             x="243.5"
             y="187.91499"
             id="use5392" />
        </g>
        <g
           style="fill:#000000;fill-opacity:1"
           id="g5394">
          <use
             height="100%"
             width="100%"
             xlink:href="#textext-81c4d2e1-13"
             x="252.356"
             y="133.17101"
             id="use5396" />
        </g>
        <g
           style="fill:#000000;fill-opacity:1"
           id="g5398">
          <use
             height="100%"
             width="100%"
             xlink:href="#textext-81c4d2e1-15"
             x="258.05899"
             y="129.55499"
             id="use5400" />
        </g>
        <g
           style="fill:#000000;fill-opacity:1"
           id="g5402">
          <use
             height="100%"
             width="100%"
             xlink:href="#textext-81c4d2e1-19"
             x="258.05899"
             y="135.634"
             id="use5404" />
        </g>
        <g
           style="fill:#000000;fill-opacity:1"
           id="g5406">
          <use
             height="100%"
             width="100%"
             xlink:href="#textext-81c4d2e1-13"
             x="252.46899"
             y="145.12601"
             id="use5408" />
        </g>
        <g
           style="fill:#000000;fill-opacity:1"
           id="g5410">
          <use
             height="100%"
             width="100%"
             xlink:href="#textext-81c4d2e1-15"
             x="258.173"
             y="141.50999"
             id="use5412" />
        </g>
        <g
           style="fill:#000000;fill-opacity:1"
           id="g5414">
          <use
             height="100%"
             width="100%"
             xlink:href="#textext-81c4d2e1-20"
             x="258.173"
             y="147.589"
             id="use5416" />
        </g>
        <g
           style="fill:#000000;fill-opacity:1"
           id="g5418">
          <use
             height="100%"
             width="100%"
             xlink:href="#textext-81c4d2e1-13"
             x="252.356"
             y="157.313"
             id="use5420" />
        </g>
        <g
           style="fill:#000000;fill-opacity:1"
           id="g5422">
          <use
             height="100%"
             width="100%"
             xlink:href="#textext-81c4d2e1-16"
             x="258.05899"
             y="153.698"
             id="use5424" />
        </g>
        <g
           style="fill:#000000;fill-opacity:1"
           id="g5426">
          <use
             height="100%"
             width="100%"
             xlink:href="#textext-81c4d2e1-19"
             x="258.05899"
             y="159.776"
             id="use5428" />
        </g>
        <g
           style="fill:#000000;fill-opacity:1"
           id="g5430">
          <use
             height="100%"
             width="100%"
             xlink:href="#textext-81c4d2e1-13"
             x="252.46899"
             y="169.26801"
             id="use5432" />
        </g>
        <g
           style="fill:#000000;fill-opacity:1"
           id="g5434">
          <use
             height="100%"
             width="100%"
             xlink:href="#textext-81c4d2e1-16"
             x="258.173"
             y="165.653"
             id="use5436" />
        </g>
        <g
           style="fill:#000000;fill-opacity:1"
           id="g5438">
          <use
             height="100%"
             width="100%"
             xlink:href="#textext-81c4d2e1-20"
             x="258.173"
             y="171.731"
             id="use5440" />
        </g>
        <g
           style="fill:#000000;fill-opacity:1"
           id="g5442">
          <use
             height="100%"
             width="100%"
             xlink:href="#textext-81c4d2e1-13"
             x="252.356"
             y="181.45599"
             id="use5444" />
        </g>
        <g
           style="fill:#000000;fill-opacity:1"
           id="g5446">
          <use
             height="100%"
             width="100%"
             xlink:href="#textext-81c4d2e1-17"
             x="258.05899"
             y="177.841"
             id="use5448" />
        </g>
        <g
           style="fill:#000000;fill-opacity:1"
           id="g5450">
          <use
             height="100%"
             width="100%"
             xlink:href="#textext-81c4d2e1-19"
             x="258.05899"
             y="183.91901"
             id="use5452" />
        </g>
        <g
           style="fill:#000000;fill-opacity:1"
           id="g5454">
          <use
             height="100%"
             width="100%"
             xlink:href="#textext-81c4d2e1-13"
             x="252.46899"
             y="193.411"
             id="use5456" />
        </g>
        <g
           style="fill:#000000;fill-opacity:1"
           id="g5458">
          <use
             height="100%"
             width="100%"
             xlink:href="#textext-81c4d2e1-17"
             x="258.173"
             y="189.79601"
             id="use5460" />
        </g>
        <g
           style="fill:#000000;fill-opacity:1"
           id="g5462">
          <use
             height="100%"
             width="100%"
             xlink:href="#textext-81c4d2e1-20"
             x="258.173"
             y="195.87399"
             id="use5464" />
        </g>
        <g
           style="fill:#000000;fill-opacity:1"
           id="g5466">
          <use
             height="100%"
             width="100%"
             xlink:href="#textext-81c4d2e1-9"
             x="263.07501"
             y="125.15"
             id="use5468" />
        </g>
        <g
           style="fill:#000000;fill-opacity:1"
           id="g5470">
          <use
             height="100%"
             width="100%"
             xlink:href="#textext-81c4d2e1-6"
             x="263.07501"
             y="134.117"
             id="use5472" />
        </g>
        <g
           style="fill:#000000;fill-opacity:1"
           id="g5474">
          <use
             height="100%"
             width="100%"
             xlink:href="#textext-81c4d2e1-6"
             x="263.07501"
             y="137.106"
             id="use5476" />
        </g>
        <g
           style="fill:#000000;fill-opacity:1"
           id="g5478">
          <use
             height="100%"
             width="100%"
             xlink:href="#textext-81c4d2e1-6"
             x="263.07501"
             y="140.09399"
             id="use5480" />
        </g>
        <g
           style="fill:#000000;fill-opacity:1"
           id="g5482">
          <use
             height="100%"
             width="100%"
             xlink:href="#textext-81c4d2e1-6"
             x="263.07501"
             y="143.08299"
             id="use5484" />
        </g>
        <g
           style="fill:#000000;fill-opacity:1"
           id="g5486">
          <use
             height="100%"
             width="100%"
             xlink:href="#textext-81c4d2e1-6"
             x="263.07501"
             y="146.07201"
             id="use5488" />
        </g>
        <g
           style="fill:#000000;fill-opacity:1"
           id="g5490">
          <use
             height="100%"
             width="100%"
             xlink:href="#textext-81c4d2e1-6"
             x="263.07501"
             y="149.061"
             id="use5492" />
        </g>
        <g
           style="fill:#000000;fill-opacity:1"
           id="g5494">
          <use
             height="100%"
             width="100%"
             xlink:href="#textext-81c4d2e1-10"
             x="263.07501"
             y="152.05"
             id="use5496" />
        </g>
        <g
           style="fill:#000000;fill-opacity:1"
           id="g5498">
          <use
             height="100%"
             width="100%"
             xlink:href="#textext-81c4d2e1-6"
             x="263.07501"
             y="169.983"
             id="use5500" />
        </g>
        <g
           style="fill:#000000;fill-opacity:1"
           id="g5502">
          <use
             height="100%"
             width="100%"
             xlink:href="#textext-81c4d2e1-6"
             x="263.07501"
             y="172.97099"
             id="use5504" />
        </g>
        <g
           style="fill:#000000;fill-opacity:1"
           id="g5506">
          <use
             height="100%"
             width="100%"
             xlink:href="#textext-81c4d2e1-6"
             x="263.07501"
             y="175.96001"
             id="use5508" />
        </g>
        <g
           style="fill:#000000;fill-opacity:1"
           id="g5510">
          <use
             height="100%"
             width="100%"
             xlink:href="#textext-81c4d2e1-6"
             x="263.07501"
             y="178.94901"
             id="use5512" />
        </g>
        <g
           style="fill:#000000;fill-opacity:1"
           id="g5514">
          <use
             height="100%"
             width="100%"
             xlink:href="#textext-81c4d2e1-6"
             x="263.07501"
             y="181.938"
             id="use5516" />
        </g>
        <g
           style="fill:#000000;fill-opacity:1"
           id="g5518">
          <use
             height="100%"
             width="100%"
             xlink:href="#textext-81c4d2e1-6"
             x="263.07501"
             y="184.927"
             id="use5520" />
        </g>
        <g
           style="fill:#000000;fill-opacity:1"
           id="g5522">
          <use
             height="100%"
             width="100%"
             xlink:href="#textext-81c4d2e1-11"
             x="263.07501"
             y="187.916"
             id="use5524" />
        </g>
      </g>
    </g>
    <g
       id="g6090"
       transform="matrix(1.5,0,0,1.5,-92.013687,188.24667)"
       ns0:preamble=""
       ns0:text="$\\vC{T} = \\begin{Bmatrix} \nT^0 \\\\\nT^1 \\\\\nT^2 \n\\end{Bmatrix}$">
      <defs
         id="defs6092">
        <g
           id="g6094">
          <symbol
             id="textext-196ae29a-0"
             overflow="visible"
             style="overflow:visible">
            <path
               id="path6097"
               d=""
               style="stroke:none"
               inkscape:connector-curvature="0" />
          </symbol>
          <symbol
             id="textext-196ae29a-1"
             overflow="visible"
             style="overflow:visible">
            <path
               id="path6100"
               d="M 4.921875,-6.078125 C 4.953125,-6.234375 4.96875,-6.25 5.15625,-6.265625 l 0.421875,0 c 0.953125,0 1.4375,0.0625 1.4375,0.890625 0,0.265625 -0.03125,0.4375 -0.0625,0.6875 0,0.046875 -0.03125,0.15625 -0.03125,0.171875 0,0.1875 0.1875,0.1875 0.25,0.1875 0.1875,0 0.21875,-0.078125 0.25,-0.28125 l 0.28125,-1.921875 c 0,-0.203125 -0.140625,-0.203125 -0.34375,-0.203125 l -6.046875,0 c -0.234375,0 -0.296875,0 -0.359375,0.203125 L 0.3125,-4.6875 c 0,0.015625 -0.0625,0.15625 -0.0625,0.1875 0,0.171875 0.1875,0.171875 0.234375,0.171875 0.171875,0 0.1875,-0.046875 0.265625,-0.25 0.53125,-1.453125 0.875,-1.6875 2.296875,-1.6875 0.296875,0 0.3125,0 0.515625,0.015625 l -1.421875,5.734375 c -0.0625,0 -0.328125,0.046875 -0.828125,0.046875 l -0.421875,0 c -0.1875,0 -0.359375,0 -0.359375,0.28125 C 0.53125,0 0.703125,0 0.765625,0 c 0.3125,0 0.625,-0.015625 0.953125,-0.015625 0.328125,0 0.65625,-0.015625 0.984375,-0.015625 0.34375,0 0.671875,0.015625 1.015625,0.015625 C 4.03125,-0.015625 4.359375,0 4.671875,0 c 0.125,0 0.3125,0 0.3125,-0.296875 0,-0.171875 -0.171875,-0.171875 -0.34375,-0.171875 l -0.40625,0 c -0.234375,0 -0.46875,0 -0.71875,-0.03125 z m 0,0"
               style="stroke:none"
               inkscape:connector-curvature="0" />
          </symbol>
          <symbol
             id="textext-196ae29a-2"
             overflow="visible"
             style="overflow:visible">
            <path
               id="path6103"
               d=""
               style="stroke:none"
               inkscape:connector-curvature="0" />
          </symbol>
          <symbol
             id="textext-196ae29a-3"
             overflow="visible"
             style="overflow:visible">
            <path
               id="path6106"
               d="m 6.84375,-3.265625 c 0.15625,0 0.34375,0 0.34375,-0.1875 C 7.1875,-3.65625 7,-3.65625 6.859375,-3.65625 l -5.96875,0 c -0.140625,0 -0.328125,0 -0.328125,0.203125 0,0.1875 0.1875,0.1875 0.328125,0.1875 z m 0.015625,1.9375 c 0.140625,0 0.328125,0 0.328125,-0.203125 0,-0.1875 -0.1875,-0.1875 -0.34375,-0.1875 l -5.953125,0 c -0.140625,0 -0.328125,0 -0.328125,0.1875 0,0.203125 0.1875,0.203125 0.328125,0.203125 z m 0,0"
               style="stroke:none"
               inkscape:connector-curvature="0" />
          </symbol>
          <symbol
             id="textext-196ae29a-4"
             overflow="visible"
             style="overflow:visible">
            <path
               id="path6109"
               d=""
               style="stroke:none"
               inkscape:connector-curvature="0" />
          </symbol>
          <symbol
             id="textext-196ae29a-5"
             overflow="visible"
             style="overflow:visible">
            <path
               id="path6112"
               d="M 5.03125,4.515625 C 5.03125,3.703125 5.25,1.796875 7.015625,0.53125 7.140625,0.4375 7.15625,0.421875 7.15625,0.25 7.15625,0.015625 7.140625,0.015625 6.890625,0.015625 l -0.15625,0 c -2.140625,1.15625 -2.90625,3.03125 -2.90625,4.5 l 0,4.28125 c 0,0.265625 0.015625,0.28125 0.28125,0.28125 l 0.640625,0 c 0.265625,0 0.28125,-0.015625 0.28125,-0.28125 z m 0,0"
               style="stroke:none"
               inkscape:connector-curvature="0" />
          </symbol>
          <symbol
             id="textext-196ae29a-6"
             overflow="visible"
             style="overflow:visible">
            <path
               id="path6115"
               d="m 3.828125,17.78125 c 0,0.25 0.015625,0.265625 0.28125,0.265625 l 0.640625,0 c 0.265625,0 0.28125,-0.01563 0.28125,-0.265625 l 0,-4.21875 c 0,-1.203125 -0.515625,-3.234375 -2.75,-4.59375 2.25,-1.359375 2.75,-3.421875 2.75,-4.59375 l 0,-4.203125 C 5.03125,-0.09375 5.015625,-0.09375 4.75,-0.09375 l -0.640625,0 c -0.265625,0 -0.28125,0 -0.28125,0.265625 l 0,4.21875 c 0,0.828125 -0.171875,2.90625 -2.015625,4.296875 -0.109375,0.09375 -0.125,0.109375 -0.125,0.28125 0,0.1875 0.015625,0.1875 0.125,0.28125 0.265625,0.203125 0.953125,0.734375 1.421875,1.734375 0.390625,0.796875 0.59375,1.6875 0.59375,2.578125 z m 0,0"
               style="stroke:none"
               inkscape:connector-curvature="0" />
          </symbol>
          <symbol
             id="textext-196ae29a-7"
             overflow="visible"
             style="overflow:visible">
            <path
               id="path6118"
               d="m 6.890625,8.96875 c 0.25,0 0.265625,-0.015625 0.265625,-0.25 C 7.15625,8.546875 7.140625,8.53125 7.109375,8.5 6.796875,8.28125 6.078125,7.765625 5.609375,6.84375 5.21875,6.09375 5.03125,5.328125 5.03125,4.453125 l 0,-4.28125 C 5.03125,-0.09375 5.015625,-0.09375 4.75,-0.09375 l -0.640625,0 c -0.265625,0 -0.28125,0 -0.28125,0.265625 l 0,4.28125 c 0,1.484375 0.765625,3.359375 2.90625,4.515625 z m 0,0"
               style="stroke:none"
               inkscape:connector-curvature="0" />
          </symbol>
          <symbol
             id="textext-196ae29a-8"
             overflow="visible"
             style="overflow:visible">
            <path
               id="path6121"
               d="m 3.828125,8.796875 c 0,0.265625 0.015625,0.28125 0.28125,0.28125 l 0.640625,0 c 0.265625,0 0.28125,-0.015625 0.28125,-0.28125 l 0,-4.28125 c 0,-1.46875 -0.78125,-3.34375 -2.921875,-4.5 l -0.140625,0 c -0.265625,0 -0.28125,0 -0.28125,0.234375 0,0.171875 0.015625,0.1875 0.0625,0.21875 0.296875,0.234375 1.015625,0.734375 1.484375,1.65625 0.28125,0.53125 0.59375,1.3125 0.59375,2.390625 z m 0,0"
               style="stroke:none"
               inkscape:connector-curvature="0" />
          </symbol>
          <symbol
             id="textext-196ae29a-9"
             overflow="visible"
             style="overflow:visible">
            <path
               id="path6124"
               d="m 5.03125,13.5625 c 0,-0.84375 0.171875,-2.921875 2,-4.3125 0.109375,-0.09375 0.125,-0.09375 0.125,-0.28125 0,-0.171875 -0.015625,-0.1875 -0.125,-0.28125 C 6.78125,8.5 6.09375,7.96875 5.609375,6.953125 5.21875,6.15625 5.03125,5.28125 5.03125,4.390625 l 0,-4.21875 C 5.03125,-0.09375 5.015625,-0.09375 4.75,-0.09375 l -0.640625,0 c -0.265625,0 -0.28125,0 -0.28125,0.265625 l 0,4.203125 c 0,1.203125 0.515625,3.234375 2.734375,4.59375 -2.25,1.375 -2.734375,3.421875 -2.734375,4.59375 l 0,4.21875 c 0,0.25 0.015625,0.265625 0.28125,0.265625 l 0.640625,0 c 0.265625,0 0.28125,-0.01563 0.28125,-0.265625 z m 0,0"
               style="stroke:none"
               inkscape:connector-curvature="0" />
          </symbol>
          <symbol
             id="textext-196ae29a-10"
             overflow="visible"
             style="overflow:visible">
            <path
               id="path6127"
               d="m 3.828125,4.453125 c 0,0.875 -0.234375,2.75 -2,3.984375 -0.125,0.09375 -0.140625,0.109375 -0.140625,0.28125 0,0.234375 0.015625,0.25 0.28125,0.25 l 0.140625,0 C 4.265625,7.8125 5.03125,5.921875 5.03125,4.453125 l 0,-4.28125 C 5.03125,-0.09375 5.015625,-0.09375 4.75,-0.09375 l -0.640625,0 c -0.265625,0 -0.28125,0 -0.28125,0.265625 z m 0,0"
               style="stroke:none"
               inkscape:connector-curvature="0" />
          </symbol>
          <symbol
             id="textext-196ae29a-11"
             overflow="visible"
             style="overflow:visible">
            <path
               id="path6130"
               d=""
               style="stroke:none"
               inkscape:connector-curvature="0" />
          </symbol>
          <symbol
             id="textext-196ae29a-12"
             overflow="visible"
             style="overflow:visible">
            <path
               id="path6133"
               d="m 4.25,-6.046875 c 0.078125,-0.28125 0.109375,-0.34375 0.234375,-0.375 0.09375,-0.015625 0.421875,-0.015625 0.625,-0.015625 1.015625,0 1.453125,0.03125 1.453125,0.8125 0,0.15625 -0.03125,0.546875 -0.078125,0.796875 0,0.046875 -0.03125,0.15625 -0.03125,0.1875 0,0.0625 0.03125,0.140625 0.125,0.140625 0.109375,0 0.125,-0.078125 0.15625,-0.234375 L 7,-6.46875 C 7.015625,-6.515625 7.015625,-6.609375 7.015625,-6.640625 7.015625,-6.75 6.921875,-6.75 6.75,-6.75 l -5.53125,0 c -0.234375,0 -0.25,0.015625 -0.328125,0.203125 l -0.59375,1.75 c 0,0.015625 -0.0625,0.15625 -0.0625,0.1875 0,0.046875 0.0625,0.109375 0.125,0.109375 0.09375,0 0.109375,-0.0625 0.171875,-0.21875 C 1.0625,-6.265625 1.328125,-6.4375 2.796875,-6.4375 l 0.390625,0 c 0.28125,0 0.28125,0.03125 0.28125,0.125 0,0.046875 -0.03125,0.171875 -0.046875,0.203125 L 2.09375,-0.78125 C 2,-0.421875 1.96875,-0.3125 0.90625,-0.3125 c -0.359375,0 -0.421875,0 -0.421875,0.1875 C 0.484375,0 0.59375,0 0.65625,0 c 0.265625,0 0.546875,-0.015625 0.8125,-0.015625 0.28125,0 0.578125,-0.015625 0.859375,-0.015625 0.28125,0 0.546875,0.015625 0.828125,0.015625 C 3.4375,-0.015625 3.734375,0 4.015625,0 c 0.09375,0 0.21875,0 0.21875,-0.203125 0,-0.109375 -0.078125,-0.109375 -0.34375,-0.109375 -0.234375,0 -0.375,0 -0.625,-0.015625 -0.296875,-0.03125 -0.375,-0.0625 -0.375,-0.21875 0,-0.015625 0,-0.0625 0.046875,-0.203125 z m 0,0"
               style="stroke:none"
               inkscape:connector-curvature="0" />
          </symbol>
          <symbol
             id="textext-196ae29a-13"
             overflow="visible"
             style="overflow:visible">
            <path
               id="path6136"
               d=""
               style="stroke:none"
               inkscape:connector-curvature="0" />
          </symbol>
          <symbol
             id="textext-196ae29a-14"
             overflow="visible"
             style="overflow:visible">
            <path
               id="path6139"
               d="M 3.59375,-2.21875 C 3.59375,-2.984375 3.5,-3.546875 3.1875,-4.03125 2.96875,-4.34375 2.53125,-4.625 1.984375,-4.625 c -1.625,0 -1.625,1.90625 -1.625,2.40625 0,0.5 0,2.359375 1.625,2.359375 1.609375,0 1.609375,-1.859375 1.609375,-2.359375 z M 1.984375,-0.0625 c -0.328125,0 -0.75,-0.1875 -0.890625,-0.75 C 1,-1.21875 1,-1.796875 1,-2.3125 1,-2.828125 1,-3.359375 1.09375,-3.734375 1.25,-4.28125 1.6875,-4.4375 1.984375,-4.4375 c 0.375,0 0.734375,0.234375 0.859375,0.640625 0.109375,0.375 0.125,0.875 0.125,1.484375 0,0.515625 0,1.03125 -0.09375,1.46875 -0.140625,0.640625 -0.609375,0.78125 -0.890625,0.78125 z m 0,0"
               style="stroke:none"
               inkscape:connector-curvature="0" />
          </symbol>
          <symbol
             id="textext-196ae29a-15"
             overflow="visible"
             style="overflow:visible">
            <path
               id="path6142"
               d="m 2.328125,-4.4375 c 0,-0.1875 0,-0.1875 -0.203125,-0.1875 -0.453125,0.4375 -1.078125,0.4375 -1.359375,0.4375 l 0,0.25 c 0.15625,0 0.625,0 1,-0.1875 l 0,3.546875 c 0,0.234375 0,0.328125 -0.6875,0.328125 l -0.265625,0 0,0.25 c 0.125,0 0.984375,-0.03125 1.234375,-0.03125 0.21875,0 1.09375,0.03125 1.25,0.03125 l 0,-0.25 -0.265625,0 c -0.703125,0 -0.703125,-0.09375 -0.703125,-0.328125 z m 0,0"
               style="stroke:none"
               inkscape:connector-curvature="0" />
          </symbol>
          <symbol
             id="textext-196ae29a-16"
             overflow="visible"
             style="overflow:visible">
            <path
               id="path6145"
               d="m 3.515625,-1.265625 -0.234375,0 c -0.015625,0.15625 -0.09375,0.5625 -0.1875,0.625 -0.046875,0.046875 -0.578125,0.046875 -0.6875,0.046875 l -1.28125,0 c 0.734375,-0.640625 0.984375,-0.84375 1.390625,-1.171875 0.515625,-0.40625 1,-0.84375 1,-1.5 0,-0.84375 -0.734375,-1.359375 -1.625,-1.359375 -0.859375,0 -1.453125,0.609375 -1.453125,1.25 0,0.34375 0.296875,0.390625 0.375,0.390625 0.15625,0 0.359375,-0.125 0.359375,-0.375 0,-0.125 -0.046875,-0.375 -0.40625,-0.375 C 0.984375,-4.21875 1.453125,-4.375 1.78125,-4.375 c 0.703125,0 1.0625,0.546875 1.0625,1.109375 0,0.609375 -0.4375,1.078125 -0.65625,1.328125 L 0.515625,-0.265625 C 0.4375,-0.203125 0.4375,-0.1875 0.4375,0 l 2.875,0 z m 0,0"
               style="stroke:none"
               inkscape:connector-curvature="0" />
          </symbol>
        </g>
      </defs>
      <g
         id="textext-196ae29a-17">
        <g
           id="g6148"
           style="fill:#000000;fill-opacity:1">
          <use
             id="use6150"
             y="145.226"
             x="223.43201"
             xlink:href="#textext-196ae29a-1"
             width="100%"
             height="100%" />
        </g>
        <g
           id="g6152"
           style="fill:#000000;fill-opacity:1">
          <use
             id="use6154"
             y="145.226"
             x="234.133"
             xlink:href="#textext-196ae29a-3"
             width="100%"
             height="100%" />
        </g>
        <g
           id="g6156"
           style="fill:#000000;fill-opacity:1">
          <use
             id="use6158"
             y="124.802"
             x="244.649"
             xlink:href="#textext-196ae29a-5"
             width="100%"
             height="100%" />
        </g>
        <g
           id="g6160"
           style="fill:#000000;fill-opacity:1">
          <use
             id="use6162"
             y="133.76801"
             x="244.649"
             xlink:href="#textext-196ae29a-6"
             width="100%"
             height="100%" />
        </g>
        <g
           id="g6164"
           style="fill:#000000;fill-opacity:1">
          <use
             id="use6166"
             y="151.701"
             x="244.649"
             xlink:href="#textext-196ae29a-7"
             width="100%"
             height="100%" />
        </g>
        <g
           id="g6168"
           style="fill:#000000;fill-opacity:1">
          <use
             id="use6170"
             y="133.17101"
             x="253.505"
             xlink:href="#textext-196ae29a-12"
             width="100%"
             height="100%" />
        </g>
        <g
           id="g6172"
           style="fill:#000000;fill-opacity:1">
          <use
             id="use6174"
             y="129.55499"
             x="260.711"
             xlink:href="#textext-196ae29a-14"
             width="100%"
             height="100%" />
        </g>
        <g
           id="g6176"
           style="fill:#000000;fill-opacity:1">
          <use
             id="use6178"
             y="145.12601"
             x="253.505"
             xlink:href="#textext-196ae29a-12"
             width="100%"
             height="100%" />
        </g>
        <g
           id="g6180"
           style="fill:#000000;fill-opacity:1">
          <use
             id="use6182"
             y="141.511"
             x="260.711"
             xlink:href="#textext-196ae29a-15"
             width="100%"
             height="100%" />
        </g>
        <g
           id="g6184"
           style="fill:#000000;fill-opacity:1">
          <use
             id="use6186"
             y="157.08099"
             x="253.505"
             xlink:href="#textext-196ae29a-12"
             width="100%"
             height="100%" />
        </g>
        <g
           id="g6188"
           style="fill:#000000;fill-opacity:1">
          <use
             id="use6190"
             y="153.466"
             x="260.711"
             xlink:href="#textext-196ae29a-16"
             width="100%"
             height="100%" />
        </g>
        <g
           id="g6192"
           style="fill:#000000;fill-opacity:1">
          <use
             id="use6194"
             y="124.802"
             x="265.17999"
             xlink:href="#textext-196ae29a-8"
             width="100%"
             height="100%" />
        </g>
        <g
           id="g6196"
           style="fill:#000000;fill-opacity:1">
          <use
             id="use6198"
             y="133.76801"
             x="265.17999"
             xlink:href="#textext-196ae29a-9"
             width="100%"
             height="100%" />
        </g>
        <g
           id="g6200"
           style="fill:#000000;fill-opacity:1">
          <use
             id="use6202"
             y="151.701"
             x="265.17999"
             xlink:href="#textext-196ae29a-10"
             width="100%"
             height="100%" />
        </g>
      </g>
    </g>
  </g>
</svg>
